<svg width="150" height="150" xmlns="http://www.w3.org/2000/svg">
 <g>
  <title>background</title>
  <rect x="-1" y="-1" width="152" height="152" id="canvas_background" fill="none"/>
 </g>

 <g>
  <title>Layer 1</title>
  <rect stroke-width="0.3" fill="black" x="60.638675" y="103" width="15.5" height="0.5" id="svg_33" stroke="black"/>
  <g class="vf-stavenote" id="svg_34">
   <g class="vf-note" id="svg_35">
    <g class="vf-stem" id="svg_36">
     <path stroke-width="1.5" fill="none" stroke="black" d="m73.63867,101l0,-67" id="svg_37"/>
    </g>
    <g class="vf-notehead" id="svg_38" stroke="null">
     <rect stroke-width="0.3" fill="black" x="60.638675" y="103" width="15.5" height="0.5" id="svg_39" stroke="black"/>
     <path stroke-width="0.3" fill="black" d="m63.63867,103m6.6024,-4.6872c0.1008,0 0.252,0 0.2772,0c0,0 0.02521,0 0.02521,0c0,0 0.15119,0 0.27719,0c2.268,0.126 3.6036,1.6128 3.6036,3.4776c0,0.9072 -0.3024,1.9404 -1.0584,2.9232c-1.4364,1.9404 -3.78,2.9988 -5.8212,2.9988c-1.5876,0 -2.9484,-0.63 -3.6036,-1.9152c-0.2016,-0.504 -0.3024,-0.9828 -0.3024,-1.512c0,-2.7468 3.07441,-5.796 6.6024,-5.9724" id="svg_40"/>
    </g>
    <g class="vf-notehead" id="svg_41">
     <path stroke-width="0.3" fill="black" d="m63.63867,93m6.6024,-4.6872c0.1008,0 0.252,0 0.2772,0c0,0 0.02521,0 0.02521,0c0,0 0.15119,0 0.27719,0c2.268,0.126 3.6036,1.6128 3.6036,3.4776c0,0.9072 -0.3024,1.9404 -1.0584,2.9232c-1.4364,1.9404 -3.78,2.9988 -5.8212,2.9988c-1.5876,0 -2.9484,-0.63 -3.6036,-1.9152c-0.2016,-0.504 -0.3024,-0.9828 -0.3024,-1.512c0,-2.7468 3.07441,-5.796 6.6024,-5.9724" id="svg_42"/>
    </g>
    <g class="vf-notehead" id="svg_43">
     <path stroke-width="0.3" fill="black" d="m63.63867,83m6.6024,-4.6872c0.1008,0 0.252,0 0.2772,0c0,0 0.02521,0 0.02521,0c0,0 0.15119,0 0.27719,0c2.268,0.126 3.6036,1.6128 3.6036,3.4776c0,0.9072 -0.3024,1.9404 -1.0584,2.9232c-1.4364,1.9404 -3.78,2.9988 -5.8212,2.9988c-1.5876,0 -2.9484,-0.63 -3.6036,-1.9152c-0.2016,-0.504 -0.3024,-0.9828 -0.3024,-1.512c0,-2.7468 3.07441,-5.796 6.6024,-5.9724" id="svg_44"/>
    </g>
    <g class="vf-notehead" id="svg_45">
     <path stroke-width="0.3" fill="black" d="m63.63867,68m6.6024,-4.6872c0.1008,0 0.252,0 0.2772,0c0,0 0.02521,0 0.02521,0c0,0 0.15119,0 0.27719,0c2.268,0.126 3.6036,1.6128 3.6036,3.4776c0,0.9072 -0.3024,1.9404 -1.0584,2.9232c-1.4364,1.9404 -3.78,2.9988 -5.8212,2.9988c-1.5876,0 -2.9484,-0.63 -3.6036,-1.9152c-0.2016,-0.504 -0.3024,-0.9828 -0.3024,-1.512c0,-2.7468 3.07441,-5.796 6.6024,-5.9724" id="svg_46"/>
    </g>
   </g>
   <g class="vf-modifiers" id="svg_47"/>
  </g>
  <rect stroke-width="0.3" fill="black" stroke="black" x="61.225759" y="92.041096" width="15.5" height="0.5" id="svg_51"/>
  <rect stroke-width="0.3" fill="black" stroke="black" x="61.225759" y="52" width="15.5" height="0.5" id="svg_52"/>
  <rect stroke-width="0.3" fill="black" stroke="black" x="45" y="72" width="50" height="0.5" id="svg_53"/>
  <rect stroke-width="0.3" fill="black" stroke="black" x="45" y="62" width="50" height="0.5" id="svg_54"/>
  <rect stroke-width="0.3" fill="black" stroke="black" x="61.225759" y="82" width="15.5" height="0.5" id="svg_1"/>
 </g>
</svg>