<svg width="150" height="150" xmlns="http://www.w3.org/2000/svg">

 <g>
  <title>background</title>
  <rect fill="none" id="canvas_background" height="152" width="152" y="-1" x="-1"/>
 </g>
 <g>
  <title>Layer 1</title>
  <rect stroke="black" id="svg_33" height="0.5" width="15.5" y="103" x="60.638675" fill="black" stroke-width="0.3"/>
  <g id="svg_34" class="vf-stavenote">
   <g id="svg_35" class="vf-note">
    <g id="svg_36" class="vf-stem">
     <path id="svg_37" d="m73.63867,101l0,-67" stroke="black" fill="none" stroke-width="1.5"/>
    </g>
    <g stroke="null" id="svg_38" class="vf-notehead">
     <rect stroke="black" id="svg_39" height="0.5" width="15.5" y="103" x="60.638675" fill="black" stroke-width="0.3"/>
     <path id="svg_40" d="m63.63867,103m6.6024,-4.6872c0.1008,0 0.252,0 0.2772,0c0,0 0.02521,0 0.02521,0c0,0 0.15119,0 0.27719,0c2.268,0.126 3.6036,1.6128 3.6036,3.4776c0,0.9072 -0.3024,1.9404 -1.0584,2.9232c-1.4364,1.9404 -3.78,2.9988 -5.8212,2.9988c-1.5876,0 -2.9484,-0.63 -3.6036,-1.9152c-0.2016,-0.504 -0.3024,-0.9828 -0.3024,-1.512c0,-2.7468 3.07441,-5.796 6.6024,-5.9724" fill="black" stroke-width="0.3"/>
    </g>
    <g id="svg_41" class="vf-notehead">
     <path id="svg_42" d="m63.63867,93m6.6024,-4.6872c0.1008,0 0.252,0 0.2772,0c0,0 0.02521,0 0.02521,0c0,0 0.15119,0 0.27719,0c2.268,0.126 3.6036,1.6128 3.6036,3.4776c0,0.9072 -0.3024,1.9404 -1.0584,2.9232c-1.4364,1.9404 -3.78,2.9988 -5.8212,2.9988c-1.5876,0 -2.9484,-0.63 -3.6036,-1.9152c-0.2016,-0.504 -0.3024,-0.9828 -0.3024,-1.512c0,-2.7468 3.07441,-5.796 6.6024,-5.9724" fill="black" stroke-width="0.3"/>
    </g>
    <g id="svg_43" class="vf-notehead">
     <path id="svg_44" d="m63.63867,83m6.6024,-4.6872c0.1008,0 0.252,0 0.2772,0c0,0 0.02521,0 0.02521,0c0,0 0.15119,0 0.27719,0c2.268,0.126 3.6036,1.6128 3.6036,3.4776c0,0.9072 -0.3024,1.9404 -1.0584,2.9232c-1.4364,1.9404 -3.78,2.9988 -5.8212,2.9988c-1.5876,0 -2.9484,-0.63 -3.6036,-1.9152c-0.2016,-0.504 -0.3024,-0.9828 -0.3024,-1.512c0,-2.7468 3.07441,-5.796 6.6024,-5.9724" fill="black" stroke-width="0.3"/>
    </g>
    <g id="svg_45" class="vf-notehead">
     <path id="svg_46" d="m63.63867,68m6.6024,-4.6872c0.1008,0 0.252,0 0.2772,0c0,0 0.02521,0 0.02521,0c0,0 0.15119,0 0.27719,0c2.268,0.126 3.6036,1.6128 3.6036,3.4776c0,0.9072 -0.3024,1.9404 -1.0584,2.9232c-1.4364,1.9404 -3.78,2.9988 -5.8212,2.9988c-1.5876,0 -2.9484,-0.63 -3.6036,-1.9152c-0.2016,-0.504 -0.3024,-0.9828 -0.3024,-1.512c0,-2.7468 3.07441,-5.796 6.6024,-5.9724" fill="black" stroke-width="0.3"/>
    </g>
   </g>
   <g id="svg_47" class="vf-modifiers"/>
  </g>
  <rect id="svg_51" height="0.5" width="15.5" y="92.041096" x="61.225759" stroke="black" fill="black" stroke-width="0.3"/>
  <rect id="svg_52" height="0.5" width="15.5" y="52" x="61.225759" stroke="black" fill="black" stroke-width="0.3"/>
  <rect id="svg_53" height="0.5" width="50" y="72" x="45" stroke="black" fill="black" stroke-width="0.3"/>
  <rect id="svg_54" height="0.5" width="50" y="62" x="45" stroke="black" fill="black" stroke-width="0.3"/>
 </g>
</svg>